<?xml version="1.0" standalone="no"?><!DOCTYPE svg PUBLIC "-//W3C//DTD SVG 1.1//EN" "http://www.w3.org/Graphics/SVG/1.1/DTD/svg11.dtd"><svg t="1605591049525" class="icon" viewBox="0 0 1024 1024" version="1.1" xmlns="http://www.w3.org/2000/svg" p-id="2594" xmlns:xlink="http://www.w3.org/1999/xlink" width="200" height="200"><defs><style type="text/css"></style></defs><path d="M874.666667 853.333333H149.333333a21.333333 21.333333 0 0 0 0 42.666667h725.333334a21.333333 21.333333 0 0 0 0-42.666667zM301.866667 548.693333a190.08 190.08 0 0 0 42.666666 26.88l352 168.746667A241.706667 241.706667 0 0 0 800 768a206.72 206.72 0 0 0 47.36-5.333333l7.04-1.493334a53.76 53.76 0 0 0 37.12-77.653333l-2.986667-6.613333a233.173333 233.173333 0 0 0-110.08-106.666667L655.573333 512l-44.8-320a42.666667 42.666667 0 0 0-23.893333-32.64l-56.32-27.733333a42.666667 42.666667 0 0 0-40.533333 1.92 42.666667 42.666667 0 0 0-21.333334 35.2l-7.68 250.666666-157.653333-75.52 18.346667-113.28A42.666667 42.666667 0 0 0 298.666667 185.386667L269.013333 170.666667a42.666667 42.666667 0 0 0-56.96 21.333333l-81.28 170.666667a42.666667 42.666667 0 0 0 10.666667 50.986666z m-51.413334-339.2l30.08 14.293334-18.346666 113.28a42.666667 42.666667 0 0 0 23.68 45.44l216.746666 103.68L512 170.666667l56.32 27.093333 44.8 321.066667a42.666667 42.666667 0 0 0 23.893333 32.64l122.88 58.88a190.72 190.72 0 0 1 89.813334 85.333333l3.2 6.613333a13.44 13.44 0 0 1 0 11.306667 13.226667 13.226667 0 0 1-9.173334 6.4l-7.253333 1.706667a192 192 0 0 1-123.52-16L362.666667 537.173333a141.226667 141.226667 0 0 1-32.426667-21.333333l-161.066667-136.533333z" p-id="2595"></path></svg>