<?xml version="1.0" standalone="no"?><!DOCTYPE svg PUBLIC "-//W3C//DTD SVG 1.1//EN" "http://www.w3.org/Graphics/SVG/1.1/DTD/svg11.dtd"><svg t="1605591731015" class="icon" viewBox="0 0 1024 1024" version="1.1" xmlns="http://www.w3.org/2000/svg" p-id="3403" xmlns:xlink="http://www.w3.org/1999/xlink" width="200" height="200"><defs><style type="text/css"></style></defs><path d="M358.3 597c0 11-9 20-20 20h-63.8c-11 0-20-9-20-20v-63.8c0-11 9-20 20-20h63.8c11 0 20 9 20 20V597zM358.3 804.6c0 11-9 20-20 20h-63.8c-11 0-20-9-20-20v-63.8c0-11 9-20 20-20h63.8c11 0 20 9 20 20v63.8zM564.9 597c0 11-9 20-20 20h-63.8c-11 0-20-9-20-20v-63.8c0-11 9-20 20-20h63.8c11 0 20 9 20 20V597zM564.9 804.6c0 11-9 20-20 20h-63.8c-11 0-20-9-20-20v-63.8c0-11 9-20 20-20h63.8c11 0 20 9 20 20v63.8zM772.2 597c0 11-9 20-20 20h-63.8c-11 0-20-9-20-20v-63.8c0-11 9-20 20-20h63.8c11 0 20 9 20 20V597zM772.2 804.6c0 11-9 20-20 20h-63.8c-11 0-20-9-20-20v-63.8c0-11 9-20 20-20h63.8c11 0 20 9 20 20v63.8zM361 344.9c0 11-9 20-20 20h-15c-11 0-20-9-20-20V119.3c0-11 9-20 20-20h15c11 0 20 9 20 20v225.6zM720 344.9c0 11-9 20-20 20h-15c-11 0-20-9-20-20V119.3c0-11 9-20 20-20h15c11 0 20 9 20 20v225.6z" fill="#515151" p-id="3404"></path><path d="M118 202.4c-11 0-20 9-20 20v685.5c0 11 9 20 20 20h790c11 0 20-9 20-20V222.4c0-11-9-20-20-20H118z m755 650.5c0 11-9 20-20 20H173c-11 0-20-9-20-20V277.3c0-11 9-20 20-20h680c11 0 20 9 20 20v575.6z" fill="#515151" p-id="3405"></path><path d="M118.7 410.5h790.5v55H118.7z" fill="#515151" p-id="3406"></path></svg>