<svg id="图层_1" data-name="图层 1" xmlns="http://www.w3.org/2000/svg" xmlns:xlink="http://www.w3.org/1999/xlink" viewBox="0 0 491.52 169.65"><defs><style>.cls-1{fill:none;}.cls-2{clip-path:url(#clip-path);}.cls-3{fill:#c6deec;}.cls-4{fill:#99c8e4;}.cls-5{fill:#79addc;}.cls-6{fill:#1e6b96;}.cls-7{fill:#134067;}.cls-8{fill:#1e6b95;}.cls-9{fill:#101b2e;}.cls-10{fill:#15233e;}</style><clipPath id="clip-path" transform="translate(-593 -405.75)"><rect class="cls-1" x="59" y="-83.32" width="1920" height="1080"/></clipPath></defs><title>welcomeBG</title><g class="cls-2"><path class="cls-3" d="M593,427.26l27.52,10.65s26.9-2.46,32,3.22l25.91,1.12,7.52-1.12,32.43-13.87S746.3,417,752.63,405.75l19.58,3.48s6.72-9.13,12.85,8l16.81,10.65,26.1.22s11.87-10.65,22.94.65c0,0,7.12-2,15.82,10.21,0,0,14.83,6,20.37,2.14,0,0,27.09,14.81,36.19,9.38l24.52,3.91s20-2.39,24.72,2.39l24.93,8.69-26.91,18.7H814.33l-40.15,29.12L593,512.24Z" transform="translate(-593 -405.75)"/><path class="cls-4" d="M593,444.91s5.77,5.11,8.48,18.06c0,0,10.82,10.22,13.86,21.8s0,1.7,0,1.7l19.44,19.76,4.23,2.65,15.55-13.21,5.47,9.54,10.59.68s16.06,11.24,20.11,9.54l14.87.18s23-7,30.76,0l9,3,20.42-9L784.1,490.9s2.11-22.83,19.18-30l19.94-27.6,12,11.92,12.68,15.67,12.17,12.61,17.58,8.86s7.77-4.43,11,3.07l23.66-1.36L933.76,476s8.62-12.66,24.84-4.49l16.9-17.38,15.89-20.78s4.39-2.73,24.34,30.32l13.18-9.54s8.28,6.13,10.14,3.75c0,0,17.24,23.91,28.39,18.09l17.07-30.35v115.5l-36.17,14.31-94.14-4.09-84-13.63-133.69-4.77-140.11,4.77-3.41,1Z" transform="translate(-593 -405.75)"/><path class="cls-5" d="M629.85,500.11l9.66-10.06,14.87-17,11.83,8.78,11.32,14.27,17.24-3.29,11.83-8,5.58.55,5.58-2.74,12.34,8L746.16,478s5.41-12.07,11.15-4.94l16.56,14,14.54,7.41s9.63-6.31,22.14,1.37l9.13,2.47,29.15,4.12h6.34l4.73-3,16.23-.82L894,490.05l13-8,13.86-11.31,17.92,15.81s15.72,5.93,18.76,10.87l4.06,7.13,20.28,13.17,13.52,3.57,24.34-2.47s18.59-3.57,29.41.27l9,.28,17.24-5.76,9.12-.82v28.26l-62.7,11-51.89,14.82-39.63,6.59-85.61,1.92-140.11-8.23-74.73-57.63Z" transform="translate(-593 -405.75)"/><path class="cls-6" d="M1069.48,526.17h-1.18l1.61,2.7-1.61-.68.8,2.37,1.31.93-.42,1.27,1,1.35-2.7,1.35,2,1.52-2.37.93-2.2-1.94v-1.69l1.61,1.27,1-1.35,1.1-.51-.76-.59.59-1.06H1068l-.93-2.41-1.35.51,1.35-3.3-1.35.76.59-1.86-1.86-.76.59-1.35.76-1,.25-.68-2.28.59,1.27-1.27-.25-1.18-1.35.34-.85-1.86-.59,1.18v1.35h-2l.85.84-2.28-1.18v-1.52l-1.44.17v-2h1.69l1.27-.42-1-.7h-1.94l.42-1.25h1.18l-.51-1.18.93-.93h-1.35l-.68.34v-3.13h-.68l-.42.59v-1.86l-.42-.93-.59.42.59,1.27-1.69-.08,1,2.37-2.28-.85v1.35l1,.08-.25,1.27-1.1.51v1.27l.84-.25.25,1.52-1.1.93,1.44.17-.59,1.1v.51l1.18.34v.93l-3,.08-1.1.34.59-1.52-1.77.42.59-1.18-1-.25,1.1-1.61-1.1.34,1.6-1.61-1.6.49.76-1.33-.76.42v-3l-.51,2-1.86.42,1.1.85-.68,1.27.93-.61v2.39l-2.37-.76v.93l.93.68-.93.68,1.1.85-.25,1.18.76.72-1.61.3-.93-1.1-.84-.34v3.63l-1.44.08.59-1.1-.59-.34v-1.14h-.76l.34-2.58-.76,1.86-1.69-.08,1,.8-1,1.48,1.44.93-.17,1.44-1.27-.25-2.28-1.86.59-1.73h1l-1.6-1v-1.52l1.27-1.18-.76-.17-1.69.93.42-2,.51-.85-1.27.42-.34-1.86-1.35.57.68,1.88-1.69.51.85.68-.85.59v.76l.93,1.18-2.28-1.1v1.18l1.35,1-1.35.8-.93.59.85,1.35,2.28-.85-.68,2.87-1.27-.34-.68,1.52-3.21.59.93.68-1.27.34,2,1.52-2,2.28-1-.84.93-1.1-1.35-.85.85-.68-2.11.34.34-1.27-1.44-.85,1-.93-1-1.1h1.27l-.09-1.1-.68-.08.34-.76-.84-.25-.51-1.35-.42-1.52-1.18,1v.55l-.68.17v.42l-.76-.76-.93.17v-1.35l-1.18.08-.34-.85v-2.2l.51-.76.51-.25.42-1.1-.09-.78h-.42l-.59-.65-.34-.68h-.76l-.34-.68.68-.68v-.42l-1.44.08v-1.44l-1.1.51v1.18h-.76l.34,1.27-.76-.34v.68l.51,1.16-.51.53v2.11l-.76.17a3.48,3.48,0,0,0,0,1.69l.51.85v.51l-.62.42-.14.93-.68.08-.93.34h-.68l-.51-.17v1.18l.34.51-1.35.17h-.76v-1.27l.59-1,.25-.76.17-.76v-.51l-.25-.51v-.51l.25-.51v-.68l-.09-.51-.93-.25-.34-1.69v-1l-.51-.08.34-1.1-.34-.68-.67-.17-.51-.08-.84-.76s.25.59,0,.93l-.25.34-.51,1-.51.59V517l-.93,1.27.34,1.27-.34,1.35.59.68.25,1.39-.17.8-1.18.25v1.61l-1.1.59-.76-.68v-.68l.51-.93-.93-.59.51-1.18-1.35-1v-.93l-1.35.59.51.76-.51.08v1l-1.44-.17.42,1.1h-.42l.51,1-.51.25.51,1.1-.51.25,1.44.93-1.1.84s-1.27-.67-.76.17l.51.85-1.1.17h-.59v1.27l.59.08-.59.51v1.35l.51.08,1.52-.17.17.68-.34.51-1.86.17-.93.25-.59-.51-1.1-.76.93-.76-.93-.42,1-.76a2.85,2.85,0,0,0-1-.25v-.76l.42-.17.51-.34-.51-.25-.09-.68,1.35-.08-.51-.34-.59-.34h-.59l-.42.08h-.84l-1.27-.85-.59-1-1.18-.59v-1.18l-.51-1,1.61.8.85-.8h1.52l-.25-.72-.76-.17-.76-.17v-.51l.25-.93a2.32,2.32,0,0,0,.08-.68,13.44,13.44,0,0,0-.17-1.44l-.68.17-.42.34a2.67,2.67,0,0,1-.68.51l-.25.08-.34-.93.51-.59.09-.85-.59-.93v-1.61l-.51-.59-.59.25h-.42v1l-.84.09h-.42l.42,1,.09,1-.51.42v.51l-.85.34v1.77l-.51.17v.93l.68.51v.51l-.25.46-.85.38s.25.17,0,.51,0,.42,0,.42l.85.17H984l.59.67.34.93-.59.17-.85.08-.87.42-.73.25-.42-.68v-.68l.42-.34.25-.51-.34-.76-1.18.34-.34-.68.42-.72.09-.38V521.1l-.51-.68h-.42l-.84.17v1.69s.25.51,0,.63,0,.47,0,.47l-.11.51-.73.34-.59-.17-1.44-1.69L975,522l-.42-.68v-1.18l-.51-1.27.51-.76.34-.68.59-.42.09-.76c-.42-.08-1.18.68-1.18.68l-.93.25-.25-.42v-.93l.34-.42.51-.25-.17-.59L974,514v-.68l.59-.42.51-.25-.08-.85-.85-.08-.42.25a1.29,1.29,0,0,0-.51.84l-.51-1.77-.34,1v2.37a1.58,1.58,0,0,0-.34.76v1.44c.25.59.42,1,.42,1s.09,0,.09.51V519s-.34-.93-.51.85l-.17,1.77-.68.51-.85-.08.51-1.52-.51-.59-.76-.68-1.1-.67-.34-.85v-.42l-.34-.76v-1.18l.68.08.42.51.68-.25-1.1-.85-.34-.68v-.93l.42-.17.08-.85v-.68l-.42-.08h-.42l-.42-.08v-.68l.42-.51.09-.51-.09-.76s-.17-.34-.42,0-.51.76-.51.76l-.76-1.1s-.42-.51,0-.68l.42-.17v-.59l-.61-.42-.66.34v.42l-.42.76-.51.34h-.59v1.27l-.59.51v1.1l-.42.85v.42l.68.68.17.59a5.26,5.26,0,0,1-.85.25h-1.61v.51l1.1.93,1.94-.34-.08,1.44s.08.76-.17.76h-.76l-1.1-.08-.17.76a.75.75,0,0,1,0,.68l-.17.42-.25.42-.76.25-.34.42-1.69-.76v-1.1l-.34-.51a7.26,7.26,0,0,0-1.1-.85,2.25,2.25,0,0,0-.59-.08l-.51.42-.76.51.76.85-.76,1.1v.42l.42.85a1.17,1.17,0,0,0-.42.34l-.08.17v1.1s-.25.51-.51.51h-.25l.84.85.42.51s.17.93.17,1.18v.25l-.93.25-.51.34L954,527a10.4,10.4,0,0,0,2,.59l-.08,1-1,.59-.51.59.34.85a1.41,1.41,0,0,1-.76.25,14.37,14.37,0,0,1-1.94-.42V530c-.51,0-.51.17-.59.42s-.25.59,0,.76,1.18,0,1.18.25v.25a2.35,2.35,0,0,0-.59.25c-.51.25-.73.34-.73.34l-.46.42v.76l-.34,1.27v.93a1.94,1.94,0,0,1,.51,1.27c0,.76.34,1.77.34,2.11s.25,16,.25,16h132.93l-5.32-8.75s-5.18-4.24-9.72-20.11" transform="translate(-593 -405.75)"/><path class="cls-6" d="M928.68,546.54H930l-1.83,2.7,1.83-.68-.92,2.37-1.49.93.48,1.27-1.16,1.35,3.08,1.35-2.31,1.52,2.7.93,2.51-1.94v-1.69l-1.83,1.27-1.16-1.35-1.25-.51.87-.59-.67-1.06h1.45l1.06-2.41,1.54.51-1.54-3.3,1.54.76-.67-1.86,2.12-.76-.67-1.35-.87-1-.29-.68,2.6.59-1.45-1.27.29-1.18,1.54.34,1-1.86.67,1.18v1.35h2.31l-1,.84,2.6-1.18v-1.52l1.64.17v-2h-1.93l-1.44-.42,1.16-.7h2.22l-.48-1.25h-1.35l.58-1.18-1.06-.93H942l.77.34v-3.13h.77l.48.59v-1.86l.48-.93.67.42-.67,1.27,1.93-.08-1.16,2.37,2.6-.85v1.35l-1.16.08.29,1.27,1.25.51v1.27l-1-.25-.29,1.52,1.25.93-1.64.17.67,1.1v.51l-1.34.34v.93l3.37.08,1.25.34-.67-1.52,2,.42-.67-1.18,1.16-.25-1.25-1.61,1.25.34-1.83-1.61,1.83.49-.87-1.33.87.42v-3l.58,2,2.12.42-1.25.85.77,1.27-1.06-.61V539l2.7-.76v.93l-1.06.68,1.06.68-1.25.85.29,1.18-.87.72,1.83.3,1.06-1.1,1-.34v3.63l1.64.08-.67-1.1.67-.34v-1.14h.87l-.39-2.58.87,1.86,1.93-.08-1.16.8,1.16,1.48-1.64.93.19,1.44,1.45-.25,2.6-1.86-.67-1.73h-1.16l1.83-1v-1.52l-1.45-1.18.87-.17,1.93.93-.48-2-.58-.85,1.45.42.38-1.86,1.54.57-.77,1.88,1.93.51-1,.68,1,.59V541l-1.06,1.18,2.6-1.1v1.18l-1.54,1,1.54.8,1.06.59-1,1.35-2.6-.85.77,2.87,1.45-.34.77,1.52,3.66.59-1.06.68,1.45.34-2.31,1.52,2.31,2.28,1.16-.84-1.06-1.1,1.54-.85-1-.68,2.41.34-.39-1.27,1.64-.85-1.16-.93,1.16-1.1h-1.45l.1-1.1.77-.08-.39-.76,1-.25.58-1.35.48-1.52,1.35,1v.55l.77.17v.42l.87-.76,1.06.17v-1.35l1.35.08.39-.85v-2.2l-.58-.76-.58-.25-.48-1.1.1-.78h.48l.67-.65.39-.68h.87l.39-.68-.77-.68v-.42l1.64.08v-1.44l1.25.51v1.18h.87l-.39,1.27.87-.34v.68l-.58,1.16.58.53v2.11l.87.17a3.07,3.07,0,0,1,0,1.69l-.58.85v.51l.71.42.16.93.77.08,1.06.34h.77l.58-.17v1.18l-.39.51,1.54.17h.87v-1.27l-.67-1-.29-.76-.19-.76v-.51l.29-.51v-.51l-.29-.51v-.68l.1-.51,1.06-.25.39-1.69v-1l.58-.08-.39-1.1.39-.68.77-.17.58-.08,1-.76s-.29.59,0,.93l.29.34.58,1,.58.59v1.35l1.06,1.27-.39,1.27.39,1.35-.67.68-.29,1.39.19.8,1.35.25v1.61l1.25.59.87-.68v-.68l-.58-.93,1.06-.59-.58-1.18,1.54-1v-.93l1.54.59-.58.76.58.08v1l1.64-.17-.48,1.1h.48l-.58,1,.58.25-.58,1.1.58.25-1.64.93,1.25.84s1.45-.67.87.17l-.58.85,1.25.17h.67v1.27l-.67.08.67.51v1.35l-.58.08-1.73-.17-.19.68.39.51,2.12.17,1.06.25.67-.51,1.25-.76-1.06-.76,1.06-.42-1.16-.76a3.64,3.64,0,0,1,1.16-.25V550l-.48-.17-.58-.34.58-.25.1-.68-1.54-.08.58-.34.67-.34h.67l.48.08h1l1.45-.85.67-1,1.35-.59v-1.18l.58-1-1.83.8-1-.8h-1.73l.29-.72.87-.17.87-.17v-.51l-.29-.93a2.1,2.1,0,0,1-.1-.68,11.9,11.9,0,0,1,.19-1.44l.77.17.48.34a3,3,0,0,0,.77.51l.29.08.39-.93-.58-.59-.1-.85.67-.93v-1.61l.58-.59.67.25h.48v1l1,.09h.48l-.48,1-.09,1,.58.42v.51l1,.34v1.77l.58.17v.93l-.77.51v.51l.29.46,1,.38s-.29.17,0,.51,0,.42,0,.42l-1,.17h-.48l-.67.67-.39.93.67.17,1,.08,1,.42.83.25.48-.68v-.68l-.48-.34-.29-.51.39-.76,1.35.34.39-.68-.48-.72-.1-.38v-1.44l.58-.68h.48l1,.17v1.69s-.29.51,0,.63,0,.47,0,.47l.13.51.83.34.67-.17,1.64-1.69,1.35-.34.48-.68v-1.18l.58-1.27-.58-.76-.39-.68-.67-.42-.1-.76c.48-.08,1.35.68,1.35.68l1.06.25.29-.42v-.93l-.38-.42-.58-.25.19-.59-.1-.59v-.68l-.67-.42-.58-.25.1-.85,1-.08.48.25a1.26,1.26,0,0,1,.58.84l.58-1.77.39,1v2.37a1.51,1.51,0,0,1,.38.76V537c-.29.59-.48,1-.48,1s-.09,0-.09.51v.84s.38-.93.58.85L1040,542l.77.51,1-.08-.58-1.52.58-.59.87-.68,1.25-.67.38-.85v-.42l.39-.76v-1.18l-.77.08-.48.51-.77-.25,1.25-.85.38-.68v-.93l-.48-.17-.1-.85v-.68l.48-.08h.48l.48-.08v-.68l-.48-.51-.1-.51.1-.76s.19-.34.48,0,.58.76.58.76l.87-1.1s.48-.51,0-.68l-.48-.17v-.59l.7-.42.75.34v.42l.48.76.58.34h.67v1.27l.67.51v1.1l.48.85v.42l-.77.68-.19.59a6.63,6.63,0,0,0,1,.25h1.83v.51l-1.25.93-2.22-.34.09,1.44s-.09.76.19.76h.87l1.25-.08.19.76a.67.67,0,0,0,0,.68l.19.42.29.42.87.25.39.42L1055,540v-1.1l.39-.51a8.2,8.2,0,0,1,1.25-.85,2.89,2.89,0,0,1,.67-.08l.58.42.87.51-.87.85.87,1.1v.42l-.48.85a1.33,1.33,0,0,1,.48.34l.1.17v1.1s.29.51.58.51h.29l-1,.85-.48.51a11.48,11.48,0,0,0-.19,1.18v.25l1.06.25.58.34.67.25a13.18,13.18,0,0,1-2.31.59l.1,1,1.16.59.58.59-.39.85a1.75,1.75,0,0,0,.87.25,18.4,18.4,0,0,0,2.22-.42v-.51c.58,0,.58.17.67.42s.29.59,0,.76-1.35,0-1.35.25V552a2.93,2.93,0,0,1,.67.25c.58.25.83.34.83.34l.52.42v.76l.39,1.27V556a1.84,1.84,0,0,0-.58,1.27,19.82,19.82,0,0,1-.39,2.11c0,.34-.29,16-.29,16H911.54l6.07-8.75s5.9-4.24,11.08-20.11" transform="translate(-593 -405.75)"/><path class="cls-7" d="M863.87,538.31h1.18l-1.61,3.48,1.61-.87-.8,3-1.31,1.2.42,1.63-1,1.74,2.7,1.74-2,2,2.37,1.2,2.2-2.5v-2.17l-1.6,1.63-1-1.74-1.1-.65.76-.76-.59-1.36h1.27l.93-3.1,1.35.65-1.35-4.23,1.35,1-.59-2.39,1.86-1-.59-1.74-.76-1.3-.25-.87,2.28.76L868.27,532l.25-1.52,1.35.43.84-2.39.59,1.52v1.74h2l-.84,1.09,2.28-1.52v-2l1.44.22V527h-1.69l-1.27-.54,1-.89h1.94l-.42-1.6H874.6l.51-1.52-.93-1.2h1.35l.68.43v-4h.68l.42.76V516l.42-1.2.59.54-.59,1.63,1.69-.11-1,3,2.28-1.09v1.74l-1,.11.25,1.63,1.1.65v1.63l-.84-.33-.25,2,1.1,1.2-1.44.22.59,1.41v.65l-1.18.43v1.2l3,.11,1.1.43-.59-2,1.77.54-.59-1.52,1-.33-1.1-2.06,1.1.43-1.61-2.06,1.61.63-.76-1.71.76.54v-3.91l.51,2.61,1.86.54-1.1,1.09.68,1.63-.93-.79v3.07l2.37-1v1.2l-.93.87.93.87-1.1,1.09.25,1.52-.76.92,1.61.38.93-1.41.84-.43v4.67l1.44.11-.59-1.41.59-.43v-1.47H892l-.34-3.31.76,2.39,1.69-.11-1,1,1,1.9-1.44,1.19.17,1.85,1.27-.32,2.28-2.39-.59-2.23h-1l1.61-1.25v-2l-1.27-1.52.76-.22,1.69,1.19-.42-2.61-.51-1.09,1.27.54.34-2.39,1.35.74-.68,2.42,1.69.65-.85.87.85.76v1l-.93,1.52,2.28-1.41v1.52l-1.35,1.25,1.35,1,.93.76-.85,1.74-2.28-1.09.68,3.69,1.27-.43.68,2,3.21.76-.93.87,1.27.43-2,2,2,2.93,1-1.09-.93-1.41,1.35-1.09-.85-.87,2.11.43-.34-1.63,1.44-1.09-1-1.19,1-1.41h-1.27l.08-1.41.67-.11-.34-1,.85-.33.51-1.74.42-2,1.18,1.25v.71l.68.22v.54l.76-1,.93.22v-1.74l1.18.11.34-1.09v-2.83l-.51-1-.51-.33-.42-1.41.08-1h.42l.59-.84.34-.87h.76l.34-.87-.68-.87v-.54l1.44.11v-1.85l1.1.65V522h.76l-.34,1.63.76-.43v.87l-.51,1.5.51.68V529l.76.22a5.71,5.71,0,0,1,0,2.17l-.51,1.09v.65l.62.54.14,1.19.68.11.93.43h.68l.51-.22v1.52l-.34.65,1.35.22h.76v-1.63l-.59-1.3-.25-1-.17-1V532l.25-.65v-.65l-.25-.65v-.87l.08-.65.93-.33.34-2.17v-1.3l.51-.11-.34-1.41.34-.87.68-.22.51-.11.84-1a1.8,1.8,0,0,0,0,1.2l.25.43.51,1.3.51.76v1.74l.93,1.63-.34,1.63.34,1.74-.59.87-.25,1.79.17,1,1.18.33v2.06l1.1.76.76-.87v-.87l-.51-1.2.93-.76-.51-1.52,1.35-1.3V530.6l1.35.76-.51,1,.51.11v1.3l1.44-.22-.42,1.41H937l-.51,1.3.51.33-.51,1.41.51.33-1.44,1.19,1.1,1.09s1.27-.87.76.22l-.51,1.09,1.1.22h.59v1.63l-.59.11.59.65v1.74l-.51.11-1.52-.22-.17.87.34.65,1.86.22.93.33.59-.65,1.1-1-.93-1,.93-.54-1-1a2.33,2.33,0,0,1,1-.32v-1l-.42-.22-.51-.43.51-.33.08-.87-1.35-.11.51-.43.59-.43h.59l.42.11h.85l1.27-1.09.59-1.3,1.18-.76v-1.52l.51-1.25-1.61,1-.85-1H942l.25-.92.76-.22.76-.22v-.65l-.25-1.2a3.81,3.81,0,0,1-.08-.87c0-.54.17-1.85.17-1.85l.68.22.42.43a2.91,2.91,0,0,0,.67.65l.25.11.34-1.2-.51-.76-.09-1.08.59-1.2v-2.06l.51-.76.59.33h.42v1.3l.84.11h.42l-.42,1.3-.08,1.3.51.54v.65l.84.43v2.28l.51.22v1.19l-.68.65v.65l.25.6.85.49s-.25.22,0,.65,0,.54,0,.54l-.85.22h-.42l-.59.87-.34,1.2.59.22.84.11.87.54.73.33.42-.87v-.87l-.42-.43-.25-.65.34-1,1.18.43L953,535l-.42-.92-.08-.49v-1.85l.51-.87h.42l.84.22v2.17s-.25.65,0,.81,0,.6,0,.6l.11.65.73.43.59-.22,1.44-2.17,1.18-.43.42-.87V530.6l.51-1.63-.51-1-.34-.87-.59-.54-.08-1c.42-.11,1.18.87,1.18.87l.93.33.25-.54v-1.19l-.34-.54-.51-.33.17-.76-.09-.76v-.87l-.59-.54-.51-.33.08-1.09.85-.11.42.33a1.84,1.84,0,0,1,.51,1.09l.51-2.28.34,1.3v3a2.32,2.32,0,0,1,.34,1V526c-.25.76-.42,1.3-.42,1.3s-.08,0-.08.65v1.09s.34-1.2.51,1.08l.17,2.28.68.65L963,533l-.51-2,.51-.76.76-.87,1.1-.87.34-1.09v-.54l.34-1V524.4l-.68.11-.42.65-.67-.33,1.1-1.09.34-.87v-1.19l-.42-.22-.08-1.09v-.87l.42-.11h.42l.42-.11v-.87l-.42-.65-.08-.65.08-1s.17-.43.42,0,.51,1,.51,1l.76-1.41s.42-.65,0-.87l-.42-.22v-.76l.61-.54.66.43v.54l.42,1,.51.43h.59v1.63l.59.65v1.41l.42,1.08V521l-.68.87-.17.76a4.41,4.41,0,0,0,.84.33h1.61v.65l-1.1,1.19-1.94-.43.08,1.85s-.08,1,.17,1h.76l1.1-.11.17,1a1.21,1.21,0,0,0,0,.87l.17.54.25.54.76.33.34.54,1.69-1v-1.41l.34-.65a7.78,7.78,0,0,1,1.1-1.09,1.77,1.77,0,0,1,.59-.11l.51.54.76.65L977.2,529l.76,1.41v.54l-.42,1.09a1.27,1.27,0,0,1,.42.43l.08.22v1.41s.25.65.51.65h.25l-.85,1.09-.42.65s-.17,1.2-.17,1.52v.33l.93.33.51.43.59.33a8.72,8.72,0,0,1-2,.76l.09,1.3,1,.76.51.76-.34,1.09a1.24,1.24,0,0,0,.76.33,11.68,11.68,0,0,0,1.94-.54v-.65c.51,0,.51.22.59.54s.25.76,0,1-1.18,0-1.18.32v.33a2.09,2.09,0,0,1,.59.33c.51.33.73.43.73.43l.46.54v1l.34,1.63v1.19a2.85,2.85,0,0,0-.51,1.63c0,1-.34,2.28-.34,2.72s-.25,20.58-.25,20.58H848.83l5.32-11.24s5.18-5.45,9.72-25.85" transform="translate(-593 -405.75)"/><path class="cls-6" d="M942.21,516.28H941l1.61,3.46-1.61-.86.8,3,1.31,1.19-.42,1.62,1,1.73-2.7,1.73,2,1.94-2.37,1.19-2.2-2.48v-2.16l1.6,1.62,1-1.73,1.1-.65-.76-.76.59-1.35h-1.27l-.93-3.08-1.35.65,1.35-4.21-1.35,1,.59-2.38-1.86-1,.59-1.73.76-1.3.25-.86-2.28.76,1.27-1.62-.25-1.51-1.35.43-.85-2.38-.59,1.51v1.73h-2l.84,1.08-2.28-1.51v-1.94l-1.44.21V505h1.69l1.27-.54-1-.89h-1.94l.42-1.59h1.18l-.51-1.51.93-1.19h-1.35l-.68.43v-4h-.68l-.42.76v-2.38l-.42-1.19-.59.54.59,1.62-1.69-.11,1,3-2.28-1.08v1.73l1,.11-.25,1.62-1.1.65v1.62l.84-.33.25,1.95-1.1,1.19,1.44.22-.59,1.4v.65l1.18.43v1.19l-3,.11-1.1.43.59-1.94-1.77.54.59-1.51-1-.32,1.1-2.05-1.1.43L923,503l-1.61.62.76-1.7-.76.54v-3.89l-.51,2.59-1.86.54,1.1,1.08-.68,1.62.93-.78v3.05l-2.37-1v1.19l.93.86-.93.86,1.1,1.08-.25,1.51.76.92-1.61.38-.93-1.4-.84-.43v4.64l-1.44.11.59-1.4-.59-.43v-1.46h-.76l.34-3.29-.76,2.38L912,511.1l1,1L912,514l1.44,1.19-.17,1.84-1.27-.32-2.28-2.38.59-2.21h1l-1.6-1.24v-1.94l1.27-1.51-.76-.22-1.69,1.19.42-2.59.51-1.08-1.27.54-.34-2.38-1.35.73.68,2.4-1.69.65.85.86-.85.76v1l.93,1.51-2.28-1.4v1.51l1.35,1.24-1.35,1-.93.76.85,1.73,2.28-1.08-.68,3.67-1.27-.43-.68,1.94-3.21.76.93.86-1.27.43,2,1.94-2,2.92-1-1.08.93-1.4-1.35-1.08.85-.86-2.11.43.34-1.62L896.32,520l1-1.19-1-1.4h1.27l-.08-1.4-.68-.11.34-1-.84-.32-.51-1.73-.42-1.94-1.18,1.24v.7l-.68.22v.54l-.76-1-.93.22V511.1l-1.18.11-.34-1.08v-2.81l.51-1,.51-.32.42-1.4-.08-1h-.42l-.59-.84-.34-.86h-.76l-.34-.86.68-.86v-.54l-1.44.11v-1.84l-1.1.65v1.51h-.76l.34,1.62-.76-.43v.86l.51,1.49-.51.67V507l-.76.22a5.65,5.65,0,0,0,0,2.16l.51,1.08v.65l-.62.54-.14,1.19-.68.11-.93.43h-.68l-.51-.22v1.51l.34.65-1.35.22h-.76v-1.62l.59-1.3.25-1,.17-1V510l-.25-.65v-.65l.25-.65v-.86l-.08-.65-.93-.32-.34-2.16v-1.3l-.51-.11.34-1.4-.34-.86-.68-.22-.51-.11-.84-1a1.78,1.78,0,0,1,0,1.19l-.25.43L877,502l-.51.76v1.73l-.93,1.62.34,1.62-.34,1.73.59.87.25,1.78-.17,1-1.18.32v2.05l-1.1.76-.76-.86v-.86l.51-1.19-.93-.76.51-1.51-1.35-1.3v-1.19l-1.35.76.51,1-.51.11v1.3l-1.44-.22.42,1.4h-.42l.51,1.3-.51.32.51,1.4-.51.32,1.44,1.19-1.1,1.08s-1.27-.86-.76.21l.51,1.08-1.1.22h-.59v1.62l.59.11-.59.65v1.73l.51.11,1.52-.22.17.87-.34.65-1.86.22-.93.32-.59-.65-1.1-1,.93-1-.93-.54,1-1a2.33,2.33,0,0,0-1-.32v-1l.42-.22.51-.43-.51-.32-.09-.86,1.35-.11-.51-.43-.59-.43h-.59l-.42.11h-.85l-1.27-1.08-.59-1.3-1.18-.76v-1.51l-.51-1.24,1.61,1,.85-1H864l-.25-.92L863,511l-.76-.22v-.65l.25-1.19a3.79,3.79,0,0,0,.08-.86c0-.54-.17-1.84-.17-1.84l-.68.22-.42.43a2.89,2.89,0,0,1-.67.65l-.25.11-.34-1.19.51-.76.09-1.08-.59-1.19v-2.05l-.51-.76-.59.32h-.42v1.3l-.84.11h-.42l.42,1.3.08,1.3-.51.54v.65l-.84.43v2.27l-.51.22v1.19l.68.65v.65l-.25.6-.85.49s.25.22,0,.65,0,.54,0,.54l.85.21h.42l.59.86.34,1.19-.59.22-.85.11-.87.54-.73.33-.42-.87v-.86l.42-.43.25-.65-.34-1-1.18.43-.34-.86.42-.92.08-.49V509.8l-.51-.86h-.42l-.85.22v2.16s.25.65,0,.81,0,.59,0,.59l-.11.65-.73.43-.59-.22-1.44-2.16-1.18-.43-.42-.86v-1.51L846.8,507l.51-1,.34-.86.59-.54.09-1c-.42-.11-1.18.86-1.18.86l-.93.32-.25-.54V503.1l.34-.54.51-.32-.17-.76.08-.76v-.86l.59-.54.51-.32-.08-1.08-.85-.11-.42.32a1.82,1.82,0,0,0-.51,1.08l-.51-2.27-.34,1.3v3a2.3,2.3,0,0,0-.34,1v1.84c.25.76.42,1.3.42,1.3s.08,0,.08.65v1.08s-.34-1.19-.51,1.08l-.17,2.27-.68.65-.84-.11.51-1.94-.51-.76-.76-.86-1.1-.86-.34-1.08v-.54l-.34-1v-1.51l.68.11.42.65.68-.33-1.1-1.08-.34-.86v-1.19l.42-.22.08-1.08v-.86l-.42-.11h-.42l-.42-.11v-.86l.42-.65.08-.65-.08-1s-.17-.43-.42,0-.51,1-.51,1l-.76-1.4s-.42-.65,0-.86l.42-.22V492l-.61-.54-.66.43v.54l-.42,1-.51.43h-.59v1.62l-.59.65v1.4l-.42,1.08v.54l.68.86.17.76a4.44,4.44,0,0,1-.85.33h-1.61v.65l1.1,1.19,1.94-.43-.08,1.84s.08,1-.17,1h-.76l-1.1-.11-.17,1a1.2,1.2,0,0,1,0,.86l-.17.54-.25.54-.76.32-.34.54-1.69-1v-1.4l-.34-.65a7.73,7.73,0,0,0-1.1-1.08,1.77,1.77,0,0,0-.59-.11l-.51.54-.76.65.76,1.08-.76,1.4v.54l.42,1.08a1.26,1.26,0,0,0-.42.43l-.08.22v1.4s-.25.65-.51.65h-.25l.85,1.08.42.65s.17,1.19.17,1.51v.32l-.93.32-.51.43-.59.32a8.72,8.72,0,0,0,2,.76l-.08,1.3-1,.76-.51.76.34,1.08a1.24,1.24,0,0,1-.76.32,11.73,11.73,0,0,1-1.94-.54v-.65c-.51,0-.51.22-.59.54s-.25.76,0,1,1.18,0,1.18.32v.32a2.1,2.1,0,0,0-.59.32c-.51.32-.72.43-.72.43l-.46.54v1l-.34,1.62v1.19a2.83,2.83,0,0,1,.51,1.62c0,1,.34,2.27.34,2.7s.25,20.47.25,20.47H957.25L951.93,542s-5.18-5.42-9.72-25.71" transform="translate(-593 -405.75)"/><path class="cls-7" d="M836.07,526.17h-1.18l1.61,2.7-1.61-.68.8,2.37,1.31.93-.42,1.27,1,1.35-2.7,1.35,2,1.52-2.37.93-2.2-1.94v-1.69l1.6,1.27,1-1.35,1.1-.51-.76-.59.59-1.06h-1.27l-.93-2.41-1.35.51,1.35-3.3-1.35.76.59-1.86-1.86-.76.59-1.35.76-1,.25-.68-2.28.59,1.27-1.27-.25-1.18-1.35.34-.85-1.86-.59,1.18v1.35h-2l.84.84-2.28-1.18v-1.52l-1.44.17v-2h1.69l1.27-.42-1-.7h-1.94l.42-1.25h1.18l-.51-1.18.93-.93h-1.35l-.68.34v-3.13h-.68l-.42.59v-1.86l-.42-.93-.59.42.59,1.27-1.69-.08,1,2.37-2.28-.85v1.35l1,.08-.25,1.27-1.1.51v1.27l.84-.25.25,1.52-1.1.93,1.44.17-.59,1.1v.51l1.18.34v.93l-3,.08-1.1.34.59-1.52-1.78.42.59-1.18-1-.25,1.1-1.61-1.1.34,1.61-1.61-1.61.49.76-1.33-.76.42v-3l-.51,2-1.86.42,1.1.85-.68,1.27.93-.61v2.39l-2.37-.76v.93l.93.68-.93.68,1.1.85-.25,1.18.76.72-1.61.3-.93-1.1-.84-.34v3.63l-1.44.08.59-1.1-.59-.34v-1.14h-.76l.34-2.58-.76,1.86-1.69-.08,1,.8-1,1.48,1.44.93-.17,1.44-1.27-.25-2.28-1.86.59-1.73h1l-1.6-1v-1.52l1.27-1.18-.76-.17-1.69.93.42-2,.51-.85-1.27.42-.34-1.86-1.35.57.68,1.88-1.69.51.84.68-.84.59v.76l.93,1.18-2.28-1.1v1.18l1.35,1-1.35.8-.93.59.85,1.35,2.28-.85-.67,2.87-1.27-.34-.68,1.52-3.21.59.93.68-1.27.34,2,1.52-2,2.28-1-.84.93-1.1-1.35-.85.85-.68-2.11.34.34-1.27-1.44-.85,1-.93-1-1.1h1.27l-.08-1.1-.68-.08.34-.76-.84-.25-.51-1.35-.42-1.52-1.18,1v.55l-.68.17v.42l-.76-.76-.93.17v-1.35l-1.18.08-.34-.85v-2.2l.51-.76.51-.25.42-1.1-.08-.78h-.42l-.59-.65-.34-.68h-.76l-.34-.68.68-.68v-.42l-1.44.08v-1.44l-1.1.51v1.18h-.76l.34,1.27-.76-.34v.68l.51,1.16-.51.53v2.11l-.76.17a3.48,3.48,0,0,0,0,1.69l.51.85v.51l-.62.42-.14.93-.68.08-.93.34h-.68l-.51-.17v1.18l.34.51-1.35.17h-.76v-1.27l.59-1,.25-.76.17-.76v-.51l-.25-.51v-.51l.25-.51v-.68l-.09-.51-.93-.25-.34-1.69v-1l-.51-.08.34-1.1-.34-.68-.67-.17-.51-.08-.84-.76s.25.59,0,.93l-.25.34-.51,1-.51.59V517l-.93,1.27.34,1.27-.34,1.35.59.68.25,1.39-.17.8-1.18.25v1.61l-1.1.59-.76-.68v-.68l.51-.93-.93-.59.51-1.18-1.35-1v-.93l-1.35.59.51.76-.51.08v1l-1.44-.17.42,1.1H763l.51,1-.51.25.51,1.1-.51.25,1.44.93-1.1.84s-1.27-.67-.76.17l.51.85-1.1.17h-.59v1.27l.59.08-.59.51v1.35l.51.08,1.52-.17.17.68-.34.51-1.86.17-.93.25-.59-.51-1.1-.76.93-.76-.93-.42,1-.76a2.85,2.85,0,0,0-1-.25v-.76l.42-.17.51-.34-.51-.25-.09-.68,1.35-.08-.51-.34-.59-.34h-.59l-.42.08h-.84l-1.27-.85-.59-1-1.18-.59v-1.18l-.51-1,1.61.8.85-.8h1.52l-.25-.72-.76-.17-.76-.17v-.51l.25-.93a2.32,2.32,0,0,0,.08-.68,13.44,13.44,0,0,0-.17-1.44l-.68.17-.42.34a2.69,2.69,0,0,1-.68.51l-.25.08-.34-.93.51-.59.09-.85-.59-.93v-1.61l-.51-.59-.59.25h-.42v1l-.84.09h-.42l.42,1,.09,1-.51.42v.51l-.84.34v1.77l-.51.17v.93l.68.51v.51l-.25.46-.85.38s.25.17,0,.51,0,.42,0,.42l.85.17h.42l.59.67.34.93-.59.17-.84.08-.87.42-.73.25-.42-.68v-.68l.42-.34.25-.51-.34-.76-1.18.34-.34-.68.42-.72.08-.38V521.1l-.51-.68h-.42l-.84.17v1.69s.25.51,0,.63,0,.47,0,.47l-.11.51-.73.34-.59-.17-1.44-1.69-1.18-.34-.42-.68v-1.18l-.51-1.27.51-.76.34-.68.59-.42.09-.76c-.42-.08-1.18.68-1.18.68l-.93.25-.25-.42v-.93l.34-.42.51-.25-.17-.59.08-.59v-.68l.59-.42.51-.25-.08-.85-.85-.08-.42.25a1.29,1.29,0,0,0-.51.84l-.51-1.77-.34,1v2.37a1.58,1.58,0,0,0-.34.76v1.44c.25.59.42,1,.42,1s.08,0,.08.51V519s-.34-.93-.51.85l-.17,1.77-.68.51-.84-.08.51-1.52-.51-.59-.76-.68-1.1-.67-.34-.85v-.42l-.34-.76v-1.18l.68.08.42.51.68-.25-1.1-.85-.34-.68v-.93l.42-.17.08-.85v-.68l-.42-.08h-.42l-.42-.08v-.68l.42-.51.09-.51-.09-.76s-.17-.34-.42,0-.51.76-.51.76l-.76-1.1s-.42-.51,0-.68l.42-.17v-.59l-.61-.42-.66.34v.42l-.42.76-.51.34h-.59v1.27l-.59.51v1.1l-.42.85v.42l.68.68.17.59a5.26,5.26,0,0,1-.85.25h-1.61v.51l1.1.93,1.94-.34-.08,1.44s.08.76-.17.76h-.76l-1.1-.08-.17.76a.75.75,0,0,1,0,.68l-.17.42-.25.42-.76.25-.34.42-1.69-.76v-1.1l-.34-.51a7.26,7.26,0,0,0-1.1-.85,2.25,2.25,0,0,0-.59-.08l-.51.42-.76.51.76.85L722,520v.42l.42.85a1.17,1.17,0,0,0-.42.34l-.08.17v1.1s-.25.51-.51.51h-.25l.85.85.42.51s.17.93.17,1.18v.25l-.93.25-.51.34-.59.25a10.4,10.4,0,0,0,2,.59l-.08,1-1,.59-.51.59.34.85a1.42,1.42,0,0,1-.76.25,14.4,14.4,0,0,1-1.94-.42V530c-.51,0-.51.17-.59.42s-.25.59,0,.76,1.18,0,1.18.25v.25a2.36,2.36,0,0,0-.59.25c-.51.25-.72.34-.72.34l-.46.42v.76l-.34,1.27v.93a1.94,1.94,0,0,1,.51,1.27c0,.76.34,1.77.34,2.11s.25,16,.25,16H851.11l-5.32-8.75s-5.18-4.24-9.72-20.11" transform="translate(-593 -405.75)"/><path class="cls-8" d="M608,508.5h1.18l-1.61,5.2,1.61-1.3-.8,4.55-1.31,1.79.42,2.43-1,2.6,2.7,2.6-2,2.92,2.37,1.79,2.2-3.73v-3.25l-1.61,2.43-1-2.6-1.1-1,.76-1.14-.59-2h1.27l.93-4.63,1.35,1-1.35-6.33,1.35,1.46-.59-3.57,1.86-1.46-.59-2.6-.76-1.95-.25-1.3,2.28,1.14-1.27-2.43.25-2.27,1.35.65.84-3.57.59,2.27v2.6h2l-.84,1.62,2.28-2.27v-2.92l1.44.33v-3.9h-1.69l-1.27-.81,1-1.34h1.94l-.42-2.4h-1.18l.51-2.27-.93-1.78h1.35l.68.65v-6h.68l.42,1.14v-3.57l.42-1.79.59.81-.59,2.44,1.69-.16-1,4.55,2.28-1.62V482l-1,.16.25,2.44,1.1,1V488l-.84-.49-.25,2.92,1.1,1.79-1.44.32.59,2.11v1l-1.18.65v1.79l3,.16,1.1.65-.59-2.92,1.78.81-.59-2.27,1-.49-1.1-3.09,1.1.65-1.61-3.08,1.61.94-.76-2.56.76.81v-5.85l.51,3.9,1.86.81-1.1,1.62.68,2.43-.93-1.18V494l2.37-1.46v1.79l-.93,1.3.93,1.3-1.1,1.62.25,2.27-.76,1.38,1.61.57.93-2.11.85-.65v7l1.44.16-.59-2.11.59-.65v-2.19h.76l-.34-5,.76,3.57,1.69-.16-1,1.54,1,2.84-1.44,1.79.17,2.76,1.27-.49,2.28-3.57-.59-3.33h-1l1.61-1.87v-2.92l-1.27-2.27.76-.32,1.69,1.79-.42-3.9-.51-1.62,1.27.81.34-3.57,1.35,1.1-.68,3.61,1.69,1-.84,1.3.84,1.14v1.46l-.93,2.27,2.28-2.11v2.27l-1.35,1.87,1.35,1.54.93,1.14-.85,2.6L644,505.9l.68,5.52,1.27-.65.68,2.92,3.21,1.14-.93,1.3,1.27.65-2,2.92,2,4.38,1-1.62-.93-2.11,1.35-1.62-.85-1.3,2.11.65-.34-2.43,1.44-1.62-1-1.79,1-2.11h-1.27l.08-2.11.68-.16-.34-1.46.84-.49.51-2.6.42-2.92,1.18,1.87v1.06l.68.32v.81l.76-1.46.93.33v-2.6l1.18.16.34-1.62V495l-.51-1.46-.51-.49-.42-2.11.08-1.5H659l.59-1.26.34-1.3h.76l.34-1.3-.68-1.3v-.81l1.44.16V480.9l1.1,1v2.27h.76l-.34,2.44.76-.65v1.3l-.51,2.23.51,1v4.06l.76.33a12.7,12.7,0,0,1,0,3.25l-.51,1.62v1l.62.81.14,1.79.68.16.93.65h.68l.51-.32v2.27l-.34,1,1.35.32h.76v-2.43l-.59-1.95-.25-1.46-.17-1.46v-1l.25-1v-1l-.25-1v-1.3l.09-1,.93-.49.34-3.25V488.2l.51-.16-.34-2.11.34-1.3.67-.32.51-.16.84-1.46a3.93,3.93,0,0,0,0,1.79l.25.65.51,1.95.51,1.14v2.6l.93,2.43-.34,2.44.34,2.6-.59,1.3-.25,2.68.17,1.54,1.18.49v3.08l1.1,1.14.76-1.3v-1.3l-.51-1.79.93-1.14-.51-2.27,1.35-1.95V497l1.35,1.14-.51,1.46.51.16v1.95l1.44-.33-.42,2.11h.42l-.51,1.95.51.49-.51,2.11.51.49-1.44,1.79,1.1,1.62s1.27-1.3.76.32l-.51,1.62,1.1.33h.59v2.43l-.59.16.59,1v2.6l-.51.16-1.52-.33-.17,1.3.34,1,1.86.32.93.49.59-1,1.1-1.46-.93-1.46.93-.81-1-1.46a1.8,1.8,0,0,1,1-.49v-1.46l-.42-.32-.51-.65.51-.49.08-1.3-1.35-.16.51-.65.59-.65h.59l.42.16h.85l1.27-1.62.59-1.95,1.18-1.14v-2.27l.51-1.87-1.61,1.54-.84-1.54h-1.52l.25-1.38.76-.32.76-.33v-1l-.25-1.79a8.35,8.35,0,0,1-.09-1.3c0-.81.17-2.76.17-2.76l.68.33.42.65a4,4,0,0,0,.68,1l.25.16.34-1.79-.51-1.14-.09-1.62.59-1.79v-3.09l.51-1.14.59.49h.42v1.95l.84.16H693l-.42,1.95-.08,1.95.51.81v1l.85.65v3.41l.51.32v1.79l-.68,1v1l.25.89.85.73a1,1,0,0,0,0,1c.25.65,0,.81,0,.81l-.85.32h-.42l-.59,1.3-.34,1.79.59.32.85.16.87.81.73.49.42-1.3v-1.3l-.42-.65-.25-1,.34-1.46,1.18.65.34-1.3-.42-1.38-.09-.73v-2.76l.51-1.3h.42l.85.32V501s-.25,1,0,1.22,0,.89,0,.89l.11,1,.73.65.59-.33,1.44-3.25,1.18-.65.42-1.3V497l.51-2.44-.51-1.46-.34-1.3L702,491l-.09-1.46c.42-.16,1.18,1.3,1.18,1.3l.93.49.25-.81v-1.79l-.34-.81-.51-.49.17-1.14-.08-1.14v-1.3l-.59-.81-.51-.49.08-1.62.85-.16.42.49a3.53,3.53,0,0,1,.51,1.62l.51-3.41.34,1.95v4.55a4.63,4.63,0,0,1,.34,1.46v2.76c-.25,1.14-.42,1.95-.42,1.95s-.09,0-.09,1v1.62s.34-1.79.51,1.62l.17,3.41.68,1,.85-.16-.51-2.92.51-1.14.76-1.3,1.1-1.3.34-1.62v-.81l.34-1.46v-2.27l-.68.16-.42,1-.68-.49,1.1-1.62.34-1.3v-1.78l-.42-.33-.08-1.62v-1.3l.42-.16h.42l.42-.16v-1.3l-.42-1-.09-1,.09-1.46s.17-.65.42,0,.51,1.46.51,1.46l.76-2.11s.42-1,0-1.3l-.42-.33V472l.61-.81.66.65v.81l.42,1.46.51.65h.59v2.44l.59,1v2.11l.42,1.62v.81l-.68,1.3-.17,1.14a3.73,3.73,0,0,0,.85.49h1.61v1l-1.1,1.79-1.94-.65.08,2.76s-.08,1.46.17,1.46h.76l1.1-.16.17,1.46a2.65,2.65,0,0,0,0,1.3l.17.81.25.81.76.49.34.81,1.69-1.46v-2.11l.34-1a10.75,10.75,0,0,1,1.1-1.62,1.25,1.25,0,0,1,.59-.16l.51.81.76,1-.76,1.62.76,2.11v.81l-.42,1.62a1.72,1.72,0,0,1,.42.65l.08.33v2.11s.25,1,.51,1H723l-.84,1.62-.42,1s-.17,1.79-.17,2.27v.49l.93.49.51.65.59.49a7.07,7.07,0,0,1-2,1.14l.08,1.95,1,1.14.51,1.14-.34,1.62s.34.49.76.49a8.94,8.94,0,0,0,1.94-.81v-1c.51,0,.51.32.59.81s.25,1.14,0,1.46-1.18,0-1.18.49v.49s.08,0,.59.49a9.12,9.12,0,0,0,.73.65l.46.81v1.46l.34,2.43v1.79a5.72,5.72,0,0,0-.51,2.43c0,1.46-.34,3.41-.34,4.06s-.25,30.77-.25,30.77H593l5.32-16.81S603.5,539,608,508.5" transform="translate(-593 -405.75)"/><path class="cls-9" d="M593,499.81h35.82l9.73-1.1h22.94l10.6-.84h22.76s2.26,11.49-4.69,16.56l-.35,2.37h-2.43s-1,7.61-2.61,10.14c0,0-.35,9.13-5,14.37,0,0-3.47,21-10.08,25.35l-5.91,8.75H593Z" transform="translate(-593 -405.75)"/><path class="cls-10" d="M678.18,546.54h1.25l-1.7,2.7,1.7-.68-.85,2.37-1.39.93.45,1.27-1.08,1.35,2.87,1.35-2.15,1.52,2.51.93,2.33-1.94v-1.69l-1.7,1.27-1.07-1.35-1.16-.51.81-.59-.63-1.06h1.34l1-2.41,1.43.51-1.43-3.3,1.43.76-.63-1.86,2-.76-.63-1.35-.81-1-.27-.68,2.42.59-1.34-1.27.27-1.18,1.43.34.9-1.86.63,1.18v1.35h2.15l-.9.84,2.42-1.18v-1.52l1.52.17v-2h-1.79l-1.34-.42,1.08-.7h2.06l-.45-1.25h-1.25l.54-1.18-1-.93h1.43l.72.34v-3.13H692l.45.59v-1.86l.45-.93.63.42-.63,1.27,1.79-.08-1.08,2.37,2.42-.85v1.35l-1.07.08.27,1.27,1.17.51v1.27l-.9-.25-.27,1.52,1.17.93-1.52.17.63,1.1v.51l-1.25.34v.93l3.13.08,1.16.34-.63-1.52,1.88.42-.63-1.18,1.08-.25-1.16-1.61,1.16.34-1.7-1.61,1.7.49-.81-1.33.81.42v-3l.54,2,2,.42-1.17.85.72,1.27-1-.61V539l2.51-.76v.93l-1,.68,1,.68-1.16.85.27,1.18-.81.72,1.7.3,1-1.1.9-.34v3.63l1.52.08-.63-1.1.63-.34v-1.14H708l-.36-2.58.81,1.86,1.79-.08-1.08.8,1.08,1.48-1.52.93.18,1.44,1.34-.25,2.42-1.86-.63-1.73H711l1.7-1v-1.52l-1.34-1.18.81-.17,1.79.93-.45-2-.54-.85,1.34.42.36-1.86,1.43.57-.72,1.88,1.79.51-.9.68.9.59V541l-1,1.18,2.42-1.1v1.18l-1.43,1,1.43.8,1,.59-.9,1.35-2.42-.85.72,2.87,1.34-.34.72,1.52,3.4.59-1,.68,1.34.34-2.15,1.52,2.15,2.28,1.08-.84-1-1.1,1.43-.85-.9-.68,2.24.34-.36-1.27,1.52-.85-1.08-.93,1.08-1.1h-1.34l.09-1.1.72-.08-.36-.76.9-.25.54-1.35.45-1.52,1.25,1v.55l.72.17v.42l.81-.76,1,.17v-1.35l1.25.08.36-.85v-2.2l-.54-.76-.54-.25-.45-1.1.09-.78h.45l.63-.65.36-.68H734l.36-.68-.72-.68v-.42l1.52.08v-1.44l1.16.51v1.18h.81l-.36,1.27.81-.34v.68l-.54,1.16.54.53v2.11l.81.17a3.28,3.28,0,0,1,0,1.69l-.54.85v.51l.66.42.15.93.72.08,1,.34h.72l.54-.17v1.18l-.36.51,1.43.17h.81v-1.27l-.63-1-.27-.76-.18-.76v-.51l.27-.51v-.51l-.27-.51v-.68l.09-.51,1-.25.36-1.69v-1l.54-.08-.36-1.1.36-.68.72-.17.54-.08.9-.76s-.27.59,0,.93l.27.34.54,1,.54.59v1.35l1,1.27-.36,1.27.36,1.35-.63.68-.27,1.39.18.8,1.25.25v1.61l1.16.59.81-.68v-.68l-.54-.93,1-.59-.54-1.18,1.43-1v-.93l1.43.59-.54.76.54.08v1l1.52-.17-.45,1.1h.45l-.54,1,.54.25-.54,1.1.54.25-1.52.93,1.16.84s1.34-.67.81.17l-.54.85,1.16.17h.63v1.27l-.63.08.63.51v1.35l-.54.08-1.61-.17-.18.68.36.51,2,.17,1,.25.63-.51,1.16-.76-1-.76,1-.42-1.08-.76a3.17,3.17,0,0,1,1.08-.25V550l-.45-.17-.54-.34.54-.25.09-.68-1.43-.08.54-.34.63-.34h.63l.45.08h.9l1.34-.85.63-1,1.25-.59v-1.18l.54-1-1.7.8-.9-.8H761l.27-.72.81-.17.81-.17v-.51l-.27-.93a2.23,2.23,0,0,1-.09-.68,12.72,12.72,0,0,1,.18-1.44l.72.17.45.34a2.84,2.84,0,0,0,.72.51l.27.08.36-.93-.54-.59-.09-.85.63-.93v-1.61l.54-.59.63.25h.45v1l.9.09h.45l-.45,1-.09,1,.54.42v.51l.9.34v1.77l.54.17v.93l-.72.51v.51l.27.46.9.38s-.27.17,0,.51,0,.42,0,.42l-.9.17h-.45l-.63.67-.36.93.63.17.9.08.92.42.78.25.45-.68v-.68l-.45-.34-.27-.51.36-.76,1.25.34.36-.68-.45-.72-.09-.38v-1.44l.54-.68h.45l.9.17v1.69s-.27.51,0,.63,0,.47,0,.47l.12.51.78.34.63-.17,1.52-1.69,1.25-.34.45-.68v-1.18l.54-1.27-.54-.76-.36-.68-.63-.42-.09-.76c.45-.08,1.25.68,1.25.68l1,.25.27-.42v-.93l-.36-.42-.54-.25.18-.59-.09-.59v-.68l-.63-.42-.54-.25.09-.85.9-.08.45.25a1.27,1.27,0,0,1,.54.84l.54-1.77.36,1v2.37a1.55,1.55,0,0,1,.36.76V537c-.27.59-.45,1-.45,1s-.09,0-.09.51v.84s.36-.93.54.85l.18,1.77.72.51.9-.08-.54-1.52.54-.59.81-.68,1.16-.67.36-.85v-.42l.36-.76v-1.18l-.72.08-.45.51-.72-.25,1.16-.85.36-.68v-.93l-.45-.17-.09-.85v-.68l.45-.08h.45l.45-.08v-.68l-.45-.51-.09-.51.09-.76s.18-.34.45,0,.54.76.54.76l.81-1.1s.45-.51,0-.68l-.45-.17v-.59l.65-.42.7.34v.42l.45.76.54.34h.63v1.27l.63.51v1.1l.45.85v.42l-.72.68-.18.59a5.82,5.82,0,0,0,.9.25H793v.51l-1.17.93-2.06-.34.09,1.44s-.09.76.18.76h.81l1.16-.08.18.76a.72.72,0,0,0,0,.68l.18.42.27.42.81.25.36.42,1.79-.76v-1.1l.36-.51a7.61,7.61,0,0,1,1.17-.85,2.51,2.51,0,0,1,.63-.08l.54.42.81.51-.81.85.81,1.1v.42l-.45.85a1.24,1.24,0,0,1,.45.34l.09.17v1.1s.27.51.54.51H800l-.9.85-.45.51s-.18.93-.18,1.18v.25l1,.25.54.34.63.25a11.55,11.55,0,0,1-2.15.59l.09,1,1.08.59.54.59-.36.85a1.55,1.55,0,0,0,.81.25,16,16,0,0,0,2.06-.42v-.51c.54,0,.54.17.63.42s.27.59,0,.76-1.25,0-1.25.25V552a2.61,2.61,0,0,1,.63.25c.54.25.77.34.77.34l.48.42v.76l.36,1.27V556a1.89,1.89,0,0,0-.54,1.27,21.16,21.16,0,0,1-.36,2.11c0,.34-.27,16-.27,16H662.24l5.64-8.75s5.49-4.24,10.3-20.11" transform="translate(-593 -405.75)"/><path class="cls-10" d="M915.25,546.54h-1.18l1.61,2.7-1.61-.68.8,2.37,1.31.93-.42,1.27,1,1.35-2.7,1.35,2,1.52-2.37.93-2.2-1.94v-1.69l1.6,1.27,1-1.35,1.1-.51-.76-.59.59-1.06h-1.27l-.93-2.41-1.35.51,1.35-3.3-1.35.76.59-1.86-1.86-.76.59-1.35.76-1,.25-.68-2.28.59,1.27-1.27-.25-1.18-1.35.34-.85-1.86-.59,1.18v1.35h-2l.84.84-2.28-1.18v-1.52l-1.44.17v-2h1.69l1.27-.42-1-.7h-1.94l.42-1.25h1.18L904,534.2l.93-.93h-1.35l-.68.34v-3.13h-.68l-.42.59v-1.86l-.42-.93-.59.42.59,1.27-1.69-.08,1,2.37-2.28-.85v1.35l1,.08-.25,1.27-1.1.51v1.27l.84-.25.25,1.52-1.1.93,1.44.17-.59,1.1v.51l1.18.34v.93l-3,.08-1.1.34.59-1.52-1.78.42.59-1.18-1-.25,1.1-1.61-1.1.34,1.61-1.61-1.61.49.76-1.33-.76.42v-3l-.51,2-1.86.42,1.1.85-.68,1.27.93-.61V539l-2.37-.76v.93l.93.68-.93.68,1.1.85-.25,1.18.76.72-1.61.3-.93-1.1-.84-.34v3.63l-1.44.08.59-1.1-.59-.34v-1.14h-.76l.34-2.58-.76,1.86-1.69-.08,1,.8-1,1.48,1.44.93-.17,1.44-1.27-.25L882.72,545l.59-1.73h1l-1.6-1v-1.52l1.27-1.18-.76-.17-1.69.93.42-2,.51-.85-1.27.42-.34-1.86-1.35.57.68,1.88-1.69.51.84.68-.84.59V541l.93,1.18-2.28-1.1v1.18l1.35,1-1.35.8-.93.59.85,1.35,2.28-.85-.67,2.87-1.27-.34-.68,1.52-3.21.59.93.68-1.27.34,2,1.52-2,2.28-1-.84.93-1.1-1.35-.85.85-.68-2.11.34.34-1.27-1.44-.85,1-.93-1-1.1h1.27l-.08-1.1-.68-.08.34-.76-.84-.25-.51-1.35-.42-1.52-1.18,1v.55l-.68.17v.42l-.76-.76-.93.17v-1.35l-1.18.08-.34-.85v-2.2l.51-.76.51-.25.42-1.1-.08-.78h-.42l-.59-.65-.34-.68h-.76l-.34-.68.68-.68v-.42l-1.44.08v-1.44l-1.1.51v1.18h-.76l.34,1.27-.76-.34v.68l.51,1.16-.51.53v2.11l-.76.17a3.48,3.48,0,0,0,0,1.69l.51.85v.51l-.62.42-.14.93-.68.08-.93.34h-.68l-.51-.17v1.18l.34.51-1.35.17h-.76v-1.27l.59-1,.25-.76.17-.76v-.51l-.25-.51v-.51l.25-.51v-.68l-.09-.51-.93-.25-.34-1.69v-1l-.51-.08.34-1.1-.34-.68-.67-.17-.51-.08-.84-.76s.25.59,0,.93l-.25.34-.51,1-.51.59v1.35l-.93,1.27.34,1.27-.34,1.35.59.68.25,1.39-.17.8-1.18.25v1.61l-1.1.59-.76-.68v-.68l.51-.93-.93-.59.51-1.18-1.35-1v-.93l-1.35.59.51.76-.51.08v1l-1.44-.17.42,1.1h-.42l.51,1-.51.25.51,1.1-.51.25,1.44.93-1.1.84s-1.27-.67-.76.17l.51.85-1.1.17h-.59v1.27l.59.08-.59.51v1.35l.51.08,1.52-.17.17.68-.34.51-1.86.17-.93.25-.59-.51-1.1-.76.93-.76-.93-.42,1-.76a2.85,2.85,0,0,0-1-.25V550l.42-.17.51-.34-.51-.25-.09-.68,1.35-.08-.51-.34-.59-.34h-.59l-.42.08h-.84l-1.27-.85-.59-1-1.18-.59v-1.18l-.51-1,1.61.8.85-.8h1.52l-.25-.72-.76-.17-.76-.17v-.51l.25-.93a2.32,2.32,0,0,0,.08-.68,13.44,13.44,0,0,0-.17-1.44l-.68.17-.42.34a2.69,2.69,0,0,1-.68.51l-.25.08-.34-.93.51-.59.09-.85-.59-.93v-1.61l-.51-.59-.59.25h-.42v1l-.84.09h-.42l.42,1,.09,1-.51.42v.51l-.84.34v1.77l-.51.17v.93l.68.51v.51l-.25.46-.85.38s.25.17,0,.51,0,.42,0,.42l.85.17h.42l.59.67.34.93-.59.17-.84.08-.87.42-.73.25-.42-.68v-.68l.42-.34.25-.51-.34-.76-1.18.34-.34-.68.42-.72.08-.38v-1.44l-.51-.68h-.42l-.84.17v1.69s.25.51,0,.63,0,.47,0,.47l-.11.51-.73.34-.59-.17L822,542.73l-1.18-.34-.42-.68v-1.18l-.51-1.27.51-.76.34-.68.59-.42.09-.76c-.42-.08-1.18.68-1.18.68l-.93.25-.25-.42v-.93l.34-.42.51-.25-.17-.59.08-.59v-.68l.59-.42.51-.25-.08-.85-.85-.08-.42.25a1.29,1.29,0,0,0-.51.84l-.51-1.77-.34,1v2.37a1.58,1.58,0,0,0-.34.76V537c.25.59.42,1,.42,1s.08,0,.08.51v.84s-.34-.93-.51.85l-.17,1.77-.68.51-.84-.08.51-1.52-.51-.59-.76-.68-1.1-.67-.34-.85v-.42l-.34-.76v-1.18l.68.08.42.51.68-.25-1.1-.85-.34-.68v-.93l.42-.17.08-.85v-.68l-.42-.08h-.42l-.42-.08v-.68l.42-.51.09-.51-.09-.76s-.17-.34-.42,0-.51.76-.51.76l-.76-1.1s-.42-.51,0-.68l.42-.17v-.59l-.61-.42-.66.34v.42l-.42.76-.51.34h-.59v1.27l-.59.51v1.1l-.42.85v.42l.68.68.17.59a5.26,5.26,0,0,1-.85.25h-1.61v.51l1.1.93,1.94-.34-.08,1.44s.08.76-.17.76h-.76l-1.1-.08-.17.76a.75.75,0,0,1,0,.68l-.17.42-.25.42-.76.25-.34.42-1.69-.76v-1.1l-.34-.51a7.26,7.26,0,0,0-1.1-.85,2.25,2.25,0,0,0-.59-.08l-.51.42-.76.51.76.85-.76,1.1v.42l.42.85a1.17,1.17,0,0,0-.42.34l-.08.17v1.1s-.25.51-.51.51h-.25l.85.85.42.51s.17.93.17,1.18v.25l-.93.25-.51.34-.59.25a10.4,10.4,0,0,0,2,.59l-.08,1-1,.59-.51.59.34.85a1.42,1.42,0,0,1-.76.25,14.4,14.4,0,0,1-1.94-.42v-.51c-.51,0-.51.17-.59.42s-.25.59,0,.76,1.18,0,1.18.25V552a2.36,2.36,0,0,0-.59.25c-.51.25-.72.34-.72.34l-.46.42v.76l-.34,1.27V556a1.94,1.94,0,0,1,.51,1.27c0,.76.34,1.77.34,2.11s.25,16,.25,16H930.3L925,566.65s-5.18-4.24-9.72-20.11" transform="translate(-593 -405.75)"/><path class="cls-10" d="M1069.48,546.54h-1.18l1.61,2.7-1.61-.68.8,2.37,1.31.93-.42,1.27,1,1.35-2.7,1.35,2,1.52-2.37.93-2.2-1.94v-1.69l1.61,1.27,1-1.35,1.1-.51-.76-.59.59-1.06H1068l-.93-2.41-1.35.51,1.35-3.3-1.35.76.59-1.86-1.86-.76.59-1.35.76-1,.25-.68-2.28.59,1.27-1.27-.25-1.18-1.35.34-.85-1.86-.59,1.18v1.35h-2l.85.84-2.28-1.18v-1.52l-1.44.17v-2h1.69l1.27-.42-1-.7h-1.94l.42-1.25h1.18l-.51-1.18.93-.93h-1.35l-.68.34v-3.13h-.68l-.42.59v-1.86l-.42-.93-.59.42.59,1.27-1.69-.08,1,2.37-2.28-.85v1.35l1,.08-.25,1.27-1.1.51v1.27l.84-.25.25,1.52-1.1.93,1.44.17-.59,1.1v.51l1.18.34v.93l-3,.08-1.1.34.59-1.52-1.77.42.59-1.18-1-.25,1.1-1.61-1.1.34,1.6-1.61-1.6.49.76-1.33-.76.42v-3l-.51,2-1.86.42,1.1.85-.68,1.27.93-.61V539l-2.37-.76v.93l.93.68-.93.68,1.1.85-.25,1.18.76.72-1.61.3-.93-1.1-.84-.34v3.63l-1.44.08.59-1.1-.59-.34v-1.14h-.76l.34-2.58-.76,1.86-1.69-.08,1,.8-1,1.48,1.44.93-.17,1.44-1.27-.25-2.28-1.86.59-1.73h1l-1.6-1v-1.52l1.27-1.18-.76-.17-1.69.93.42-2,.51-.85-1.27.42-.34-1.86-1.35.57.68,1.88-1.69.51.85.68-.85.59V541l.93,1.18-2.28-1.1v1.18l1.35,1-1.35.8-.93.59.85,1.35,2.28-.85-.68,2.87-1.27-.34-.68,1.52-3.21.59.93.68-1.27.34,2,1.52-2,2.28-1-.84.93-1.1-1.35-.85.85-.68-2.11.34.34-1.27-1.44-.85,1-.93-1-1.1h1.27l-.09-1.1-.68-.08.34-.76-.84-.25-.51-1.35-.42-1.52-1.18,1v.55l-.68.17v.42l-.76-.76-.93.17v-1.35l-1.18.08-.34-.85v-2.2l.51-.76.51-.25.42-1.1-.09-.78h-.42l-.59-.65-.34-.68h-.76l-.34-.68.68-.68v-.42l-1.44.08v-1.44l-1.1.51v1.18h-.76l.34,1.27-.76-.34v.68l.51,1.16-.51.53v2.11l-.76.17a3.48,3.48,0,0,0,0,1.69l.51.85v.51l-.62.42-.14.93-.68.08-.93.34h-.68l-.51-.17v1.18l.34.51-1.35.17h-.76v-1.27l.59-1,.25-.76.17-.76v-.51l-.25-.51v-.51l.25-.51v-.68l-.09-.51-.93-.25-.34-1.69v-1l-.51-.08.34-1.1-.34-.68-.67-.17-.51-.08-.84-.76s.25.59,0,.93l-.25.34-.51,1-.51.59v1.35l-.93,1.27.34,1.27-.34,1.35.59.68.25,1.39-.17.8-1.18.25v1.61l-1.1.59-.76-.68v-.68l.51-.93-.93-.59.51-1.18-1.35-1v-.93l-1.35.59.51.76-.51.08v1l-1.44-.17.42,1.1h-.42l.51,1-.51.25.51,1.1-.51.25,1.44.93-1.1.84s-1.27-.67-.76.17l.51.85-1.1.17h-.59v1.27l.59.08-.59.51v1.35l.51.08,1.52-.17.17.68-.34.51-1.86.17-.93.25-.59-.51-1.1-.76.93-.76-.93-.42,1-.76a2.85,2.85,0,0,0-1-.25V550l.42-.17.51-.34-.51-.25-.09-.68,1.35-.08-.51-.34-.59-.34h-.59l-.42.08h-.84l-1.27-.85-.59-1-1.18-.59v-1.18l-.51-1,1.61.8.85-.8h1.52l-.25-.72-.76-.17-.76-.17v-.51l.25-.93a2.32,2.32,0,0,0,.08-.68,13.44,13.44,0,0,0-.17-1.44l-.68.17-.42.34a2.67,2.67,0,0,1-.68.51l-.25.08-.34-.93.51-.59.09-.85-.59-.93v-1.61l-.51-.59-.59.25h-.42v1l-.84.09h-.42l.42,1,.09,1-.51.42v.51l-.85.34v1.77l-.51.17v.93l.68.51v.51l-.25.46-.85.38s.25.17,0,.51,0,.42,0,.42l.85.17H984l.59.67.34.93-.59.17-.85.08-.87.42-.73.25-.42-.68v-.68l.42-.34.25-.51-.34-.76-1.18.34-.34-.68.42-.72.09-.38v-1.44l-.51-.68h-.42l-.84.17v1.69s.25.51,0,.63,0,.47,0,.47l-.11.51-.73.34-.59-.17-1.44-1.69L975,542.4l-.42-.68v-1.18l-.51-1.27.51-.76.34-.68.59-.42.09-.76c-.42-.08-1.18.68-1.18.68l-.93.25-.25-.42v-.93l.34-.42.51-.25-.17-.59.08-.59v-.68l.59-.42.51-.25-.08-.85-.85-.08-.42.25a1.29,1.29,0,0,0-.51.84l-.51-1.77-.34,1v2.37a1.58,1.58,0,0,0-.34.76V537c.25.59.42,1,.42,1s.09,0,.09.51v.84s-.34-.93-.51.85l-.17,1.77-.68.51-.85-.08.51-1.52-.51-.59-.76-.68-1.1-.67-.34-.85v-.42l-.34-.76v-1.18l.68.08.42.51.68-.25-1.1-.85-.34-.68v-.93l.42-.17.08-.85v-.68l-.42-.08h-.42l-.42-.08v-.68l.42-.51.09-.51-.09-.76s-.17-.34-.42,0-.51.76-.51.76l-.76-1.1s-.42-.51,0-.68l.42-.17v-.59l-.61-.42-.66.34v.42l-.42.76-.51.34h-.59v1.27l-.59.51v1.1l-.42.85v.42l.68.68.17.59a5.26,5.26,0,0,1-.85.25h-1.61v.51l1.1.93,1.94-.34-.08,1.44s.08.76-.17.76h-.76l-1.1-.08-.17.76a.75.75,0,0,1,0,.68l-.17.42-.25.42-.76.25-.34.42-1.69-.76v-1.1l-.34-.51a7.26,7.26,0,0,0-1.1-.85,2.25,2.25,0,0,0-.59-.08l-.51.42-.76.51.76.85-.76,1.1v.42l.42.85a1.17,1.17,0,0,0-.42.34l-.08.17v1.1s-.25.51-.51.51h-.25l.84.85.42.51s.17.93.17,1.18v.25l-.93.25-.51.34-.59.25a10.4,10.4,0,0,0,2,.59l-.08,1-1,.59-.51.59.34.85a1.41,1.41,0,0,1-.76.25,14.37,14.37,0,0,1-1.94-.42v-.51c-.51,0-.51.17-.59.42s-.25.59,0,.76,1.18,0,1.18.25V552a2.35,2.35,0,0,0-.59.25c-.51.25-.73.34-.73.34l-.46.42v.76l-.34,1.27V556a1.94,1.94,0,0,1,.51,1.27c0,.76.34,1.77.34,2.11s.25,16,.25,16h132.93l-5.32-8.75s-5.18-4.24-9.72-20.11" transform="translate(-593 -405.75)"/><path class="cls-9" d="M637.48,499.9s-.25-11,1.77-15l.76-5.68-.76-11.87s-4.82.13-5.45-1l1.27,2.2-2.53-3-.63-2.71-.76,7.1h-.89l.76-7.1V459.5l.38-5.16,1.27-2.45-.38-9.29s6.72-6.2,11.15-1.94c0,0-1.77-6.32.63-7.74,0,0,3.3-4.13,7.73,0l.44.71-.63.32.63,3-.44.45.44,1.68-.63.32-.38,2.32-1.52.06s2.73,2.65,2.85,4.07l.7,6.13,1.08.06s2.41,1.55,1.9,2.9L654,457.43l-.76.64L654.4,460l-.32.39L653,458.53l-.44.13.19,2.65.76.45.32,2.13.44,1.16s1,4.65.25,7.87c0,0,1,3.81.63,5.94l-.63-.13-.06-4.45-.57-3.1.25-4.58-.25-.84-.57.58-.06,1.16-.89.13.76,2.45v8.13l-.38,7.1-.25,3.42.57,1-.32,4.9s-1.14,3.74-.51,5.29h-5.13L647,484.54a5.09,5.09,0,0,1-1-3.49l-.51.19-.63,4s-1.58,2.71-1.61,4.19a21,21,0,0,0-.48,8l-.38,2.45-4.94.32Z" transform="translate(-593 -405.75)"/></g></svg>